<svg width="16" height="17" viewBox="0 0 16 17" fill="none" xmlns="http://www.w3.org/2000/svg">
<path d="M13.8891 8.66186C12.9822 9.78686 12.0866 10.3869 11.1516 10.485C11.0581 10.4949 10.9643 10.4999 10.8703 10.5C9.66406 10.5 8.65843 9.68123 7.68281 8.88748C6.75093 8.12873 5.87031 7.41186 4.95156 7.51248C4.29468 7.58123 3.61968 8.05748 2.88906 8.96748C2.80371 9.06278 2.68508 9.12173 2.55758 9.13222C2.43008 9.1427 2.30342 9.10391 2.20365 9.02384C2.10388 8.94377 2.03859 8.8285 2.02123 8.70176C2.00387 8.57501 2.03575 8.44643 2.11031 8.34248C3.01718 7.21748 3.91281 6.61748 4.84781 6.51936C6.18031 6.37873 7.26593 7.26248 8.31531 8.11686C9.24718 8.87561 10.1278 9.59311 11.0466 9.49186C11.7034 9.42311 12.3784 8.94686 13.1091 8.03686C13.1487 7.98165 13.1991 7.93509 13.2573 7.90003C13.3155 7.86496 13.3802 7.84212 13.4475 7.8329C13.5148 7.82368 13.5833 7.82827 13.6488 7.8464C13.7142 7.86452 13.7753 7.8958 13.8283 7.93833C13.8813 7.98085 13.9251 8.03372 13.9569 8.09372C13.9888 8.15372 14.0081 8.21959 14.0137 8.28729C14.0192 8.355 14.0109 8.42314 13.9893 8.48754C13.9677 8.55193 13.9331 8.61125 13.8878 8.66186H13.8891Z" fill="black"/>
</svg>
