<svg width="24" height="24" viewBox="0 0 24 24" fill="none" xmlns="http://www.w3.org/2000/svg">
<path d="M20.4354 15.5059H16.2004L16.8104 8.5059H20.4404C20.573 8.5059 20.7002 8.45322 20.794 8.35945C20.8878 8.26568 20.9404 8.13851 20.9404 8.0059C20.9404 7.87329 20.8878 7.74611 20.794 7.65235C20.7002 7.55858 20.573 7.5059 20.4404 7.5059H16.9004L17.2404 3.6359C17.2488 3.50379 17.2055 3.37359 17.1197 3.27282C17.0338 3.17205 16.9122 3.10861 16.7804 3.0959C16.7147 3.09043 16.6486 3.09801 16.5858 3.1182C16.5231 3.1384 16.4649 3.1708 16.4147 3.21355C16.3645 3.25631 16.3233 3.30857 16.2934 3.36732C16.2635 3.42607 16.2455 3.49016 16.2404 3.5559L15.8904 7.5059H8.90043L9.24043 3.6359C9.24883 3.50379 9.20553 3.37359 9.11969 3.27282C9.03385 3.17205 8.91219 3.10861 8.78043 3.0959C8.71446 3.08903 8.64779 3.09562 8.58444 3.11528C8.5211 3.13493 8.4624 3.16724 8.41192 3.21025C8.36143 3.25326 8.3202 3.30607 8.29072 3.36549C8.26124 3.4249 8.24413 3.48968 8.24043 3.5559L7.89043 7.5059H3.56543C3.43282 7.5059 3.30564 7.55858 3.21188 7.65235C3.11811 7.74611 3.06543 7.87329 3.06543 8.0059C3.06543 8.13851 3.11811 8.26568 3.21188 8.35945C3.30564 8.45322 3.43282 8.5059 3.56543 8.5059H7.80543L7.18543 15.5059H3.56543C3.43282 15.5059 3.30564 15.5586 3.21188 15.6523C3.11811 15.7461 3.06543 15.8733 3.06543 16.0059C3.06543 16.1385 3.11811 16.2657 3.21188 16.3595C3.30564 16.4532 3.43282 16.5059 3.56543 16.5059H7.10543L6.76543 20.3659C6.75686 20.4964 6.79879 20.6253 6.88254 20.7258C6.9663 20.8263 7.08547 20.8908 7.21543 20.9059H7.26543C7.39034 20.9028 7.50987 20.8544 7.60182 20.7698C7.69378 20.6852 7.75191 20.5701 7.76543 20.4459L8.10543 16.5059H15.1054L14.7654 20.3659C14.7569 20.4964 14.7988 20.6253 14.8825 20.7258C14.9663 20.8263 15.0855 20.8908 15.2154 20.9059H15.2654C15.3903 20.9028 15.5099 20.8544 15.6018 20.7698C15.6938 20.6852 15.7519 20.5701 15.7654 20.4459L16.1054 16.5059H20.4354C20.568 16.5059 20.6952 16.4532 20.789 16.3595C20.8828 16.2657 20.9354 16.1385 20.9354 16.0059C20.9354 15.8733 20.8828 15.7461 20.789 15.6523C20.6952 15.5586 20.568 15.5059 20.4354 15.5059ZM15.1854 15.5059H8.20043L8.81043 8.5059H15.8104L15.1854 15.5059Z" fill="black"/>
</svg>
