<svg width="24" height="24" viewBox="0 0 24 24" fill="none" xmlns="http://www.w3.org/2000/svg">
<g clip-path="url(#clip0_990_130)">
<path d="M11.1911 0.565125C11.4661 -0.188875 12.5331 -0.187875 12.8091 0.565125L14.7271 5.80312C15.0185 6.59897 15.48 7.32172 16.0792 7.92101C16.6785 8.5203 17.4013 8.98172 18.1971 9.27312L23.4341 11.1911C24.1891 11.4661 24.1891 12.5331 23.4341 12.8091L18.1971 14.7271C17.4013 15.0185 16.6785 15.48 16.0792 16.0792C15.48 16.6785 15.0185 17.4013 14.7271 18.1971L12.8091 23.4341C12.5331 24.1891 11.4661 24.1891 11.1911 23.4341L9.27312 18.1971C8.98172 17.4013 8.5203 16.6785 7.92101 16.0792C7.32172 15.48 6.59897 15.0185 5.80312 14.7271L0.565125 12.8091C-0.187875 12.5331 -0.188875 11.4671 0.565125 11.1911L5.80312 9.27312C6.59897 8.98172 7.32172 8.5203 7.92101 7.92101C8.5203 7.32172 8.98172 6.59897 9.27312 5.80312L11.1911 0.565125ZM10.6861 6.32113C10.3192 7.32203 9.73862 8.231 8.98481 8.98481C8.231 9.73862 7.32203 10.3192 6.32113 10.6861L2.73013 12.0001L6.32113 13.3151C7.32237 13.6815 8.23164 14.2618 8.98553 15.0157C9.73942 15.7696 10.3198 16.6789 10.6861 17.6801L12.0001 21.2691L13.3151 17.6801C13.6815 16.6789 14.2618 15.7696 15.0157 15.0157C15.7696 14.2618 16.6789 13.6815 17.6801 13.3151L21.2691 12.0001L17.6801 10.6861C16.6789 10.3198 15.7696 9.73942 15.0157 8.98553C14.2618 8.23164 13.6815 7.32237 13.3151 6.32113L12.0001 2.73013L10.6861 6.32113Z" fill="black"/>
</g>
<defs>
<clipPath id="clip0_990_130">
<rect width="24" height="24" fill="white"/>
</clipPath>
</defs>
</svg>
