<svg width="24" height="25" viewBox="0 0 24 25" fill="none" xmlns="http://www.w3.org/2000/svg">
<path d="M4.24 13.25C3.84461 12.8572 3.53134 12.3897 3.31845 11.8747C3.10556 11.3596 2.99731 10.8073 3 10.25C3 9.12285 3.44777 8.04184 4.2448 7.24481C5.04183 6.44778 6.12283 6.00002 7.25 6.00002C8.83 6.00002 10.21 6.86002 10.94 8.14002H12.06C12.4311 7.48908 12.9681 6.94811 13.6163 6.57219C14.2645 6.19628 15.0007 5.99886 15.75 6.00002C16.8772 6.00002 17.9582 6.44778 18.7552 7.24481C19.5522 8.04184 20 9.12285 20 10.25C20 11.42 19.5 12.5 18.76 13.25L11.5 20.5L4.24 13.25ZM19.46 13.96C20.41 13 21 11.7 21 10.25C21 8.85763 20.4469 7.52227 19.4623 6.53771C18.4777 5.55314 17.1424 5.00002 15.75 5.00002C14 5.00002 12.45 5.85002 11.5 7.17002C11.0151 6.49652 10.3766 5.94834 9.63748 5.57095C8.89835 5.19356 8.0799 4.99784 7.25 5.00002C5.85761 5.00002 4.52226 5.55314 3.53769 6.53771C2.55312 7.52227 2 8.85763 2 10.25C2 11.7 2.59 13 3.54 13.96L11.5 21.92L19.46 13.96Z" fill="black"/>
</svg>
