<svg width="24" height="24" viewBox="0 0 24 24" fill="none" xmlns="http://www.w3.org/2000/svg">
<path d="M16.5 4.5C19.2661 4.5 21.5 6.73386 21.5 9.5C21.5 10.5319 21.189 11.4893 20.6543 12.2803C20.4258 12.6207 19.7806 13.3642 18.9824 14.251C18.169 15.1548 17.1618 16.2448 16.1816 17.2949C15.2014 18.3453 14.2468 19.3577 13.5371 20.1074C13.1822 20.4823 12.8885 20.7922 12.6836 21.0078C12.5811 21.1156 12.5 21.1994 12.4453 21.2568C12.418 21.2855 12.3969 21.3075 12.3828 21.3223C12.3758 21.3296 12.3708 21.3361 12.3672 21.3398L12.3623 21.3447C12.3622 21.3448 12.3618 21.3451 12 21L12.3623 21.3447C12.268 21.4436 12.1367 21.5 12 21.5C11.8633 21.5 11.733 21.4436 11.6387 21.3447L11.6328 21.3398C11.6292 21.3361 11.6242 21.3296 11.6172 21.3223C11.6031 21.3075 11.582 21.2855 11.5547 21.2568C11.5 21.1994 11.4189 21.1156 11.3164 21.0078C11.1115 20.7922 10.8178 20.4823 10.4629 20.1074C9.75323 19.3577 8.79864 18.3453 7.81836 17.2949C6.83824 16.2448 5.83103 15.1548 5.01758 14.251C4.21941 13.3642 3.57416 12.6207 3.3457 12.2803L3.15625 11.9756C2.73848 11.2484 2.5 10.4029 2.5 9.5C2.5 6.73386 4.73386 4.5 7.5 4.5C9.25293 4.5 10.6879 5.44557 11.6377 6.69727L12 7.17383C12.0958 7.04781 12.2149 6.89122 12.3623 6.69727C13.3121 5.44557 14.7471 4.5 16.5 4.5Z" fill="black"/>
</svg>
