<svg width="24" height="24" viewBox="0 0 24 24" fill="none" xmlns="http://www.w3.org/2000/svg">
<path d="M4.64661 12.3535C4.47587 12.1827 4.45409 11.9186 4.58216 11.7246L4.64661 11.6465L11.6467 4.64648C11.715 4.57812 11.8031 4.52951 11.9015 4.50977C11.9663 4.49677 12.0331 4.49695 12.0978 4.50977C12.152 4.52047 12.2019 4.5417 12.2482 4.56836C12.2855 4.58983 12.3218 4.61459 12.3537 4.64648L19.3537 11.6465C19.549 11.8417 19.549 12.1583 19.3537 12.3535C19.1585 12.5487 18.8419 12.5487 18.6467 12.3535L12.5002 6.20703V19C12.5002 19.2761 12.2763 19.5 12.0002 19.5C11.7241 19.4999 11.5002 19.2761 11.5002 19V6.20703L5.35365 12.3535L5.27552 12.418C5.08146 12.546 4.81744 12.5243 4.64661 12.3535Z" fill="#888888"/>
</svg>
