<?xml version="1.0" encoding="utf-8"?>
<!-- Generator: Adobe Illustrator 27.9.0, SVG Export Plug-In . SVG Version: 6.00 Build 0)  -->
<svg version="1.1" id="Layer_1" xmlns="http://www.w3.org/2000/svg" xmlns:xlink="http://www.w3.org/1999/xlink" x="0px" y="0px"
	 viewBox="0 0 293.09 62.24" style="enable-background:new 0 0 293.09 62.24;" xml:space="preserve">
<style type="text/css">
	.st0{fill:#0A0A0A;}
</style>
<g>
	<path class="st0" d="M89.33,61.12l0.16-0.8h0.24c1.92,0,3.47-0.59,4.64-1.76c1.17-1.17,1.76-2.72,1.76-4.64V8.32
		c0-1.92-0.59-3.47-1.76-4.64c-1.17-1.17-2.72-1.76-4.64-1.76l-0.08-0.8h42.8l2.4,16.16h-0.72c-1.6-10.08-7.95-15.12-19.04-15.12
		h-6.64v24.08h6.24c2.67,0,4.8-0.84,6.4-2.52c1.6-1.68,2.4-3.85,2.4-6.52h0.8v20h-0.8c0-2.88-0.88-5.25-2.64-7.12
		c-1.76-1.87-4.08-2.8-6.96-2.8h-5.44v27.28c0,1.76,0.61,3.16,1.84,4.2c1.23,1.04,2.75,1.56,4.56,1.56l0.08,0.8H89.33z"/>
	<path class="st0" d="M152.35,61.12l0.08-0.8h0.16c1.92,0,3.47-0.59,4.64-1.76c1.17-1.17,1.76-2.72,1.76-4.64v-27.2l-16.8-21.76
		c-0.69-0.91-1.51-1.64-2.44-2.2c-0.93-0.56-2.09-0.84-3.48-0.84h-0.08v-0.8h27.12v0.8c-2.93,0-4.73,0.84-5.4,2.52
		c-0.67,1.68-0.17,3.67,1.48,5.96l10.4,14.08l9.68-13.04c2.03-2.77,2.8-5.05,2.32-6.84c-0.48-1.79-2.32-2.68-5.52-2.68v-0.8h15.2
		v0.8c-1.81,0.11-3.43,0.91-4.84,2.4c-1.41,1.49-3.03,3.44-4.84,5.84l-11.2,15.12v28.64c0,1.87,0.59,3.4,1.76,4.6
		c1.17,1.2,2.67,1.8,4.48,1.8h0.16l0.08,0.8H152.35z"/>
	<path class="st0" d="M214.29,62.24c-6.4,0-12.01-1.29-16.84-3.88c-4.83-2.59-8.59-6.21-11.28-10.88
		c-2.69-4.67-4.04-10.12-4.04-16.36s1.35-11.69,4.04-16.36c2.69-4.67,6.45-8.29,11.28-10.88C202.27,1.29,207.89,0,214.29,0
		c6.4,0,12.01,1.29,16.84,3.88c4.83,2.59,8.59,6.21,11.28,10.88c2.69,4.67,4.04,10.12,4.04,16.36s-1.35,11.69-4.04,16.36
		c-2.69,4.67-6.45,8.29-11.28,10.88C226.3,60.95,220.69,62.24,214.29,62.24z M214.29,60.96c2.77,0,5.31-0.72,7.6-2.16
		c2.29-1.44,4.27-3.47,5.92-6.08c1.6-2.61,2.84-5.76,3.72-9.44c0.88-3.68,1.32-7.76,1.32-12.24s-0.44-8.57-1.32-12.28
		c-0.88-3.71-2.12-6.87-3.72-9.48c-1.65-2.61-3.63-4.64-5.92-6.08c-2.29-1.44-4.83-2.16-7.6-2.16c-2.77,0-5.31,0.72-7.6,2.16
		s-4.24,3.47-5.84,6.08c-1.65,2.61-2.92,5.77-3.8,9.48c-0.88,3.71-1.32,7.8-1.32,12.28s0.44,8.56,1.32,12.24
		c0.88,3.68,2.15,6.83,3.8,9.44c1.6,2.61,3.55,4.64,5.84,6.08S211.51,60.96,214.29,60.96z"/>
	<path class="st0" d="M247.57,61.12l0.16-0.8h0.24c1.92,0,3.47-0.59,4.64-1.76c1.17-1.17,1.76-2.72,1.76-4.64V8.32
		c0-1.92-0.59-3.47-1.76-4.64c-1.17-1.17-2.72-1.76-4.64-1.76l-0.08-0.8h42.8l2.4,16.16h-0.72c-1.6-10.08-7.95-15.12-19.04-15.12
		h-6.64v24.08h6.24c2.67,0,4.8-0.84,6.4-2.52c1.6-1.68,2.4-3.85,2.4-6.52h0.8v20h-0.8c0-2.88-0.88-5.25-2.64-7.12
		c-1.76-1.87-4.08-2.8-6.96-2.8h-5.44v27.28c0,1.76,0.61,3.16,1.84,4.2c1.23,1.04,2.75,1.56,4.56,1.56l0.08,0.8H247.57z"/>
</g>
<g>
	<path class="st0" d="M40.45,10.91c2.48,17.62,4.49,18.6,40.45,19.82c-35.96,1.22-37.97,2.2-40.45,19.82
		C37.97,32.94,35.96,31.95,0,30.73C35.96,29.52,37.97,28.53,40.45,10.91z"/>
</g>
</svg>
