<svg width="17" height="22" viewBox="0 0 17 22" fill="none" xmlns="http://www.w3.org/2000/svg">
<path d="M8.25 0C11.4731 0 13.6078 1.2324 14.8877 3.2959C16.1254 5.29149 16.5 7.96534 16.5 10.75C16.5 13.5347 16.1254 16.2085 14.8877 18.2041C13.6078 20.2676 11.4731 21.5 8.25 21.5C5.02685 21.5 2.89222 20.2676 1.6123 18.2041C0.374575 16.2085 0 13.5347 0 10.75C0 7.96534 0.374575 5.29149 1.6123 3.2959C2.89222 1.2324 5.02685 0 8.25 0ZM8.25 1.5C5.47315 1.5 3.85778 2.52292 2.8877 4.08691C1.87553 5.71881 1.5 8.04478 1.5 10.75C1.5 13.4552 1.87553 15.7812 2.8877 17.4131C3.85778 18.9771 5.47315 20 8.25 20C11.0269 20 12.6422 18.9771 13.6123 17.4131C14.6245 15.7812 15 13.4552 15 10.75C15 8.04478 14.6245 5.71881 13.6123 4.08691C12.6422 2.52292 11.0269 1.5 8.25 1.5ZM8.29785 4.00391C8.59829 4.00626 8.83901 4.12735 9.01562 4.25195C9.18704 4.37293 9.34923 4.53345 9.49902 4.69141C9.76253 4.96929 10.0014 5.24792 10.3721 5.64551L10.792 6.08691L10.8428 6.14453C11.0785 6.44253 11.0548 6.87694 10.7764 7.14746C10.4979 7.41764 10.0634 7.42867 9.77246 7.18457L9.71582 7.13184L9.2959 6.69043C9.18643 6.5731 9.08418 6.45959 8.98828 6.35449V10.1602C8.99993 10.1471 9.01253 10.1345 9.02441 10.1211C9.22708 9.89325 9.45681 9.63561 9.71387 9.36914C10.0014 9.07114 10.4763 9.06316 10.7744 9.35059C11.0724 9.63816 11.0815 10.113 10.7939 10.4111C10.5592 10.6545 10.3453 10.8925 10.1445 11.1182C9.94847 11.3386 9.75515 11.5583 9.57812 11.7432C9.40477 11.9241 9.21079 12.1111 9.00586 12.249C8.81948 12.3744 8.52684 12.523 8.1709 12.4932C7.88529 12.483 7.6549 12.3682 7.48438 12.248C7.31285 12.1271 7.15086 11.9665 7.00098 11.8086C6.64815 11.4368 6.34411 11.0689 5.70801 10.4141L6.78418 9.36816C7.04279 9.63438 7.2819 9.89232 7.48828 10.1182V6.36426C7.48431 6.36873 7.48056 6.37343 7.47656 6.37793C7.27388 6.60579 7.04322 6.86338 6.78613 7.12988C6.49867 7.42786 6.02372 7.43662 5.72559 7.14941C5.42759 6.86193 5.41879 6.38699 5.70605 6.08887C5.94078 5.84555 6.15478 5.60745 6.35547 5.38184C6.55174 5.16118 6.74567 4.94082 6.92285 4.75586C7.09624 4.57487 7.29016 4.38787 7.49512 4.25C7.676 4.12841 7.95647 3.9852 8.29785 4.00391ZM5.72363 9.35352C6.02069 9.06502 6.49557 9.07125 6.78418 9.36816L5.70801 10.4141C5.41941 10.117 5.42659 9.64214 5.72363 9.35352Z" fill="#FAFAFA"/>
</svg>
