<svg width="24" height="24" viewBox="0 0 24 24" fill="none" xmlns="http://www.w3.org/2000/svg">
<path d="M11 2C15.9706 2 20 6.02944 20 11C20 13.125 19.2619 15.0766 18.0303 16.6162L21.707 20.293L21.7764 20.3691C22.0962 20.7619 22.073 21.3411 21.707 21.707C21.3411 22.073 20.7619 22.0962 20.3691 21.7764L20.293 21.707L16.6162 18.0303C15.0766 19.2619 13.125 20 11 20C6.02944 20 2 15.9706 2 11C2 6.02944 6.02944 2 11 2ZM11 4C7.13401 4 4 7.13401 4 11C4 14.866 7.13401 18 11 18C12.8905 18 14.6047 17.2492 15.8643 16.0312C15.8884 16.0006 15.9151 15.9716 15.9434 15.9434C15.9716 15.9151 16.0006 15.8884 16.0312 15.8643C17.2492 14.6047 18 12.8905 18 11C18 7.13401 14.866 4 11 4Z" fill="black"/>
</svg>
